<svg width="600" height="300" viewBox="0 0 600 300" fill="none" xmlns="http://www.w3.org/2000/svg">
<rect width="600" height="300" fill="#6628B6"/>
<path d="M223.839 144.612C223.248 140.206 219.698 137.481 213.657 137.481C207.539 137.481 203.507 140.315 203.522 144.923C203.507 148.504 205.764 150.824 210.435 151.758L214.576 152.583C216.662 153.003 217.612 153.766 217.643 154.965C217.612 156.382 216.071 157.393 213.751 157.393C211.384 157.393 209.812 156.382 209.407 154.435L202.884 154.778C203.507 159.355 207.399 162.173 213.735 162.173C219.932 162.173 224.369 159.013 224.384 154.295C224.369 150.839 222.111 148.768 217.472 147.819L213.144 146.947C210.917 146.464 210.092 145.701 210.108 144.549C210.092 143.117 211.711 142.183 213.766 142.183C216.071 142.183 217.441 143.444 217.768 144.985L223.839 144.612Z" fill="#F8F8F8"/>
<path d="M228.56 170.674H235.193V157.876H235.395C236.314 159.869 238.322 162.095 242.183 162.095C247.632 162.095 251.882 157.783 251.882 149.78C251.882 141.56 247.445 137.481 242.199 137.481C238.197 137.481 236.283 139.863 235.395 141.809H235.099V137.793H228.56V170.674ZM235.053 149.749C235.053 145.484 236.859 142.759 240.081 142.759C243.366 142.759 245.11 145.608 245.11 149.749C245.11 153.922 243.335 156.817 240.081 156.817C236.89 156.817 235.053 154.015 235.053 149.749Z" fill="#F8F8F8"/>
<path d="M263.123 162.157C266.657 162.157 268.945 160.616 270.113 158.39H270.3V161.706H276.59V145.577C276.59 139.879 271.763 137.481 266.439 137.481C260.71 137.481 256.942 140.221 256.023 144.581L262.157 145.079C262.609 143.491 264.026 142.323 266.408 142.323C268.665 142.323 269.957 143.46 269.957 145.421V145.515C269.957 147.056 268.323 147.258 264.166 147.663C259.433 148.099 255.183 149.687 255.183 155.027C255.183 159.76 258.561 162.157 263.123 162.157ZM265.022 157.58C262.983 157.58 261.519 156.631 261.519 154.809C261.519 152.941 263.06 152.022 265.396 151.695C266.844 151.493 269.21 151.15 270.004 150.621V153.159C270.004 155.665 267.933 157.58 265.022 157.58Z" fill="#F8F8F8"/>
<path d="M292.54 162.173C298.907 162.173 302.908 158.437 303.22 152.941H296.961C296.572 155.494 294.89 156.926 292.617 156.926C289.519 156.926 287.511 154.326 287.511 149.749C287.511 145.234 289.535 142.65 292.617 142.65C295.046 142.65 296.603 144.254 296.961 146.636H303.22C302.939 141.109 298.751 137.481 292.508 137.481C285.253 137.481 280.77 142.51 280.77 149.843C280.77 157.113 285.176 162.173 292.54 162.173Z" fill="#F8F8F8"/>
<path d="M318.364 162.173C324.28 162.173 328.266 159.293 329.2 154.856L323.066 154.451C322.396 156.273 320.684 157.222 318.473 157.222C315.157 157.222 313.055 155.027 313.055 151.462V151.446H329.34V149.625C329.34 141.498 324.42 137.481 318.099 137.481C311.062 137.481 306.501 142.479 306.501 149.858C306.501 157.44 311 162.173 318.364 162.173ZM313.055 147.336C313.195 144.612 315.266 142.432 318.208 142.432C321.088 142.432 323.081 144.487 323.097 147.336H313.055Z" fill="#F8F8F8"/>
<path d="M346.387 137.793H341.888V132.063H335.256V137.793H331.987V142.775H335.256V155.229C335.225 159.916 338.416 162.235 343.227 162.033C344.94 161.971 346.154 161.628 346.823 161.41L345.78 156.475C345.453 156.537 344.753 156.693 344.13 156.693C342.807 156.693 341.888 156.195 341.888 154.358V142.775H346.387V137.793Z" fill="#F8F8F8"/>
<path d="M350.708 161.706H357.34V148.177C357.34 145.234 359.488 143.211 362.415 143.211C363.334 143.211 364.595 143.366 365.218 143.569V137.684C364.626 137.544 363.801 137.45 363.131 137.45C360.454 137.45 358.258 139.007 357.387 141.965H357.138V137.793H350.708V161.706Z" fill="#F8F8F8"/>
<path d="M374.781 162.157C378.315 162.157 380.603 160.616 381.771 158.39H381.958V161.706H388.247V145.577C388.247 139.879 383.421 137.481 378.097 137.481C372.368 137.481 368.6 140.221 367.681 144.581L373.815 145.079C374.267 143.491 375.684 142.323 378.066 142.323C380.323 142.323 381.615 143.46 381.615 145.421V145.515C381.615 147.056 379.981 147.258 375.824 147.663C371.091 148.099 366.841 149.687 366.841 155.027C366.841 159.76 370.219 162.157 374.781 162.157ZM376.68 157.58C374.641 157.58 373.177 156.631 373.177 154.809C373.177 152.941 374.718 152.022 377.054 151.695C378.502 151.493 380.868 151.15 381.662 150.621V153.159C381.662 155.665 379.591 157.58 376.68 157.58Z" fill="#F8F8F8"/>
<path d="M414.831 137.793H407.809L402.859 154.903H402.61L397.643 137.793H390.637L398.998 161.706H406.471L414.831 137.793Z" fill="#F8F8F8"/>
<path d="M428.309 162.173C434.225 162.173 438.211 159.293 439.145 154.856L433.011 154.451C432.342 156.273 430.629 157.222 428.418 157.222C425.102 157.222 423 155.027 423 151.462V151.446H439.285V149.625C439.285 141.498 434.366 137.481 428.045 137.481C421.008 137.481 416.446 142.479 416.446 149.858C416.446 157.44 420.945 162.173 428.309 162.173ZM423 147.336C423.141 144.612 425.211 142.432 428.154 142.432C431.034 142.432 433.027 144.487 433.042 147.336H423Z" fill="#F8F8F8"/>
<path d="M450.245 129.822H443.613V161.706H450.245V129.822Z" fill="#F8F8F8"/>
<path d="M455.558 161.706H462.19V137.793H455.558V161.706ZM458.89 134.71C460.867 134.71 462.486 133.2 462.486 131.347C462.486 129.51 460.867 128 458.89 128C456.928 128 455.309 129.51 455.309 131.347C455.309 133.2 456.928 134.71 458.89 134.71Z" fill="#F8F8F8"/>
<path d="M474.135 147.881C474.151 144.799 475.988 142.993 478.666 142.993C481.328 142.993 482.932 144.736 482.916 147.663V161.706H489.548V146.48C489.548 140.906 486.279 137.481 481.297 137.481C477.747 137.481 475.179 139.225 474.104 142.012H473.824V137.793H467.503V161.706H474.135V147.881Z" fill="#F8F8F8"/>
<path d="M505.549 171.172C512.384 171.172 517.241 168.058 517.241 161.94V137.793H510.655V141.809H510.406C509.519 139.863 507.573 137.481 503.572 137.481C498.325 137.481 493.888 141.56 493.888 149.703C493.888 157.658 498.201 161.363 503.587 161.363C507.402 161.363 509.535 159.449 510.406 157.471H510.687V161.846C510.687 165.131 508.585 166.408 505.705 166.408C502.778 166.408 501.299 165.131 500.754 163.683L494.62 164.508C495.414 168.276 499.104 171.172 505.549 171.172ZM505.689 156.382C502.435 156.382 500.66 153.797 500.66 149.671C500.66 145.608 502.404 142.759 505.689 142.759C508.912 142.759 510.718 145.484 510.718 149.671C510.718 153.891 508.881 156.382 505.689 156.382Z" fill="#F8F8F8"/>
<path d="M531.148 162.111C533.14 162.111 534.869 160.445 534.884 158.374C534.869 156.335 533.14 154.669 531.148 154.669C529.093 154.669 527.396 156.335 527.411 158.374C527.396 160.445 529.093 162.111 531.148 162.111Z" fill="#04B7AC"/>
<path d="M117.05 130.172L99 148.898L117.05 167.621L121.318 161.636L109.155 148.895L121.318 136.154L117.05 130.172ZM124.949 167.174H132.87L145.464 130.517H137.539L124.949 167.174ZM154.019 130.172L149.751 136.157L161.914 148.898L149.751 161.639L154.019 167.624L172.069 148.901L154.019 130.172Z" fill="#04B7AC"/>
</svg>
