<svg width="239" height="25" viewBox="0 0 239 25" fill="none" xmlns="http://www.w3.org/2000/svg">
<path d="M69.4716 10.0938C69.1477 7.68182 67.2045 6.19034 63.8977 6.19034C60.5483 6.19034 58.3409 7.74148 58.3494 10.2642C58.3409 12.2244 59.5767 13.4943 62.1335 14.0057L64.4006 14.4574C65.5426 14.6875 66.0625 15.1051 66.0795 15.7614C66.0625 16.5369 65.2188 17.0909 63.9489 17.0909C62.6534 17.0909 61.7926 16.5369 61.571 15.4716L58 15.6591C58.3409 18.1648 60.4716 19.7074 63.9403 19.7074C67.3324 19.7074 69.7614 17.9773 69.7699 15.3949C69.7614 13.5028 68.5256 12.3693 65.9858 11.8494L63.6165 11.3722C62.3977 11.108 61.946 10.6903 61.9545 10.0597C61.946 9.27557 62.8324 8.76421 63.9574 8.76421C65.2188 8.76421 65.9688 9.45455 66.1477 10.2983L69.4716 10.0938Z" fill="#F8F8F8"/>
<path d="M72.0561 24.3608H75.6868V17.3551H75.7976C76.3004 18.446 77.3999 19.6648 79.5135 19.6648C82.4964 19.6648 84.8232 17.304 84.8232 12.9233C84.8232 8.4233 82.3942 6.19034 79.522 6.19034C77.3317 6.19034 76.2834 7.49432 75.7976 8.55966H75.6357V6.3608H72.0561V24.3608ZM75.6101 12.9063C75.6101 10.571 76.5987 9.07955 78.3629 9.07955C80.1612 9.07955 81.1158 10.6392 81.1158 12.9063C81.1158 15.1903 80.1442 16.7756 78.3629 16.7756C76.6158 16.7756 75.6101 15.2415 75.6101 12.9063Z" fill="#F8F8F8"/>
<path d="M90.9766 19.6989C92.9112 19.6989 94.1641 18.8551 94.8033 17.6364H94.9055V19.4517H98.3487V10.6222C98.3487 7.50284 95.7067 6.19034 92.7919 6.19034C89.6555 6.19034 87.593 7.69034 87.0902 10.0767L90.4482 10.3494C90.6953 9.48011 91.4709 8.84091 92.7749 8.84091C94.0107 8.84091 94.718 9.46307 94.718 10.5369V10.5881C94.718 11.4318 93.8232 11.5426 91.5476 11.7642C88.9567 12.0028 86.63 12.8722 86.63 15.7955C86.63 18.3864 88.4794 19.6989 90.9766 19.6989ZM92.0163 17.1932C90.8999 17.1932 90.0987 16.6733 90.0987 15.6761C90.0987 14.6534 90.9425 14.1506 92.2209 13.9716C93.0135 13.8608 94.3089 13.6733 94.7436 13.3835V14.7727C94.7436 16.1449 93.6101 17.1932 92.0163 17.1932Z" fill="#F8F8F8"/>
<path d="M107.08 19.7074C110.566 19.7074 112.756 17.6619 112.927 14.6534H109.501C109.288 16.0511 108.367 16.8352 107.123 16.8352C105.427 16.8352 104.327 15.4119 104.327 12.9063C104.327 10.4347 105.435 9.01989 107.123 9.01989C108.452 9.01989 109.305 9.89773 109.501 11.2017H112.927C112.773 8.17614 110.481 6.19034 107.063 6.19034C103.092 6.19034 100.637 8.94318 100.637 12.9574C100.637 16.9375 103.049 19.7074 107.08 19.7074Z" fill="#F8F8F8"/>
<path d="M121.217 19.7074C124.456 19.7074 126.638 18.1307 127.149 15.7017L123.791 15.4801C123.425 16.4773 122.487 16.9972 121.277 16.9972C119.462 16.9972 118.311 15.7955 118.311 13.8438V13.8352H127.226V12.8381C127.226 8.38921 124.533 6.19034 121.072 6.19034C117.22 6.19034 114.723 8.92614 114.723 12.9659C114.723 17.1165 117.186 19.7074 121.217 19.7074ZM118.311 11.5852C118.388 10.0938 119.521 8.90057 121.132 8.90057C122.709 8.90057 123.8 10.0256 123.808 11.5852H118.311Z" fill="#F8F8F8"/>
<path d="M136.558 6.3608H134.095V3.22443H130.464V6.3608H128.675V9.08807H130.464V15.9063C130.447 18.4716 132.195 19.7415 134.828 19.6307C135.766 19.5966 136.43 19.4091 136.797 19.2898L136.226 16.5881C136.047 16.6222 135.663 16.7074 135.322 16.7074C134.598 16.7074 134.095 16.4347 134.095 15.429V9.08807H136.558V6.3608Z" fill="#F8F8F8"/>
<path d="M138.923 19.4517H142.554V12.0455C142.554 10.4347 143.73 9.32671 145.332 9.32671C145.835 9.32671 146.526 9.41193 146.866 9.52273V6.30114C146.543 6.22443 146.091 6.1733 145.724 6.1733C144.259 6.1733 143.057 7.02557 142.58 8.64489H142.443V6.3608H138.923V19.4517Z" fill="#F8F8F8"/>
<path d="M152.102 19.6989C154.036 19.6989 155.289 18.8551 155.928 17.6364H156.031V19.4517H159.474V10.6222C159.474 7.50284 156.832 6.19034 153.917 6.19034C150.781 6.19034 148.718 7.69034 148.215 10.0767L151.573 10.3494C151.82 9.48011 152.596 8.84091 153.9 8.84091C155.136 8.84091 155.843 9.46307 155.843 10.5369V10.5881C155.843 11.4318 154.948 11.5426 152.673 11.7642C150.082 12.0028 147.755 12.8722 147.755 15.7955C147.755 18.3864 149.604 19.6989 152.102 19.6989ZM153.141 17.1932C152.025 17.1932 151.224 16.6733 151.224 15.6761C151.224 14.6534 152.067 14.1506 153.346 13.9716C154.138 13.8608 155.434 13.6733 155.869 13.3835V14.7727C155.869 16.1449 154.735 17.1932 153.141 17.1932Z" fill="#F8F8F8"/>
<path d="M174.026 6.3608H170.183L167.472 15.7273H167.336L164.617 6.3608H160.782L165.359 19.4517H169.45L174.026 6.3608Z" fill="#F8F8F8"/>
<path d="M181.405 19.7074C184.643 19.7074 186.825 18.1307 187.337 15.7017L183.979 15.4801C183.612 16.4773 182.675 16.9972 181.464 16.9972C179.649 16.9972 178.499 15.7955 178.499 13.8438V13.8352H187.413V12.8381C187.413 8.38921 184.72 6.19034 181.26 6.19034C177.408 6.19034 174.911 8.92614 174.911 12.9659C174.911 17.1165 177.374 19.7074 181.405 19.7074ZM178.499 11.5852C178.575 10.0938 179.709 8.90057 181.32 8.90057C182.896 8.90057 183.987 10.0256 183.996 11.5852H178.499Z" fill="#F8F8F8"/>
<path d="M193.413 1.99716H189.783V19.4517H193.413V1.99716Z" fill="#F8F8F8"/>
<path d="M196.322 19.4517H199.952V6.3608H196.322V19.4517ZM198.146 4.6733C199.228 4.6733 200.114 3.84659 200.114 2.83239C200.114 1.82671 199.228 1 198.146 1C197.072 1 196.185 1.82671 196.185 2.83239C196.185 3.84659 197.072 4.6733 198.146 4.6733Z" fill="#F8F8F8"/>
<path d="M206.491 11.8835C206.5 10.196 207.506 9.20739 208.972 9.20739C210.429 9.20739 211.307 10.1619 211.298 11.7642V19.4517H214.929V11.1165C214.929 8.06534 213.139 6.19034 210.412 6.19034C208.469 6.19034 207.062 7.14489 206.474 8.67046H206.321V6.3608H202.861V19.4517H206.491V11.8835Z" fill="#F8F8F8"/>
<path d="M223.688 24.6335C227.43 24.6335 230.089 22.929 230.089 19.5795V6.3608H226.484V8.55966H226.347C225.861 7.49432 224.796 6.19034 222.606 6.19034C219.734 6.19034 217.305 8.4233 217.305 12.8807C217.305 17.2358 219.665 19.2642 222.614 19.2642C224.702 19.2642 225.87 18.2159 226.347 17.1335H226.501V19.5284C226.501 21.3267 225.35 22.0256 223.773 22.0256C222.171 22.0256 221.361 21.3267 221.063 20.5341L217.705 20.9858C218.14 23.0483 220.16 24.6335 223.688 24.6335ZM223.765 16.5369C221.984 16.5369 221.012 15.1222 221.012 12.8636C221.012 10.6392 221.967 9.07955 223.765 9.07955C225.529 9.07955 226.518 10.571 226.518 12.8636C226.518 15.1733 225.512 16.5369 223.765 16.5369Z" fill="#F8F8F8"/>
<path d="M236.571 21.2216C237.662 21.2216 238.608 20.3097 238.616 19.1761C238.608 18.0597 237.662 17.1477 236.571 17.1477C235.446 17.1477 234.517 18.0597 234.526 19.1761C234.517 20.3097 235.446 21.2216 236.571 21.2216Z" fill="#04B7AC"/>
<path d="M9.88103 0.55307L0 12.0576L9.88103 23.5601L12.2174 19.8829L5.55897 12.0556L12.2174 4.2283L9.88103 0.55307ZM14.2051 23.2854H18.5415L25.4359 0.764989H21.0974L14.2051 23.2854ZM30.119 0.55307L27.7826 4.23027L34.441 12.0576L27.7826 19.8849L30.119 23.562L40 12.0595L30.119 0.55307Z" fill="#04B7AC"/>
</svg>
